<svg width="24" height="24" viewBox="0 0 24 24" fill="none" xmlns="http://www.w3.org/2000/svg">
<path d="M13.3333 6.66666C16.1373 6.66666 17.3333 7.86266 17.3333 10.6667H20C20 6.36666 17.6333 3.99999 13.3333 3.99999V6.66666ZM17.896 13.924C17.6398 13.6911 17.3031 13.5669 16.9571 13.5776C16.611 13.5883 16.2827 13.7331 16.0413 13.9813L12.8507 17.2627C12.0827 17.116 10.5387 16.6347 8.94934 15.0493C7.36001 13.4587 6.87868 11.9107 6.73601 11.148L10.0147 7.95599C10.2632 7.71483 10.4082 7.38642 10.4189 7.04027C10.4296 6.69412 10.3052 6.35738 10.072 6.10133L5.14534 0.683993C4.91207 0.427135 4.58785 0.271332 4.24155 0.249673C3.89525 0.228013 3.55414 0.342204 3.29068 0.567993L0.397343 3.04933C0.166825 3.28068 0.0292358 3.58859 0.0106764 3.91466C-0.00932359 4.24799 -0.390657 12.144 5.73201 18.2693C11.0733 23.6093 17.764 24 19.6067 24C19.876 24 20.0413 23.992 20.0853 23.9893C20.4114 23.9711 20.7191 23.8329 20.9493 23.6013L23.4293 20.7067C23.6553 20.4434 23.7697 20.1024 23.7483 19.7561C23.7269 19.4098 23.5713 19.0855 23.3147 18.852L17.896 13.924Z" fill="#CD06FF"/>
</svg>
